<mxfile host="app.diagrams.net" modified="2021-02-28T00:19:03.022Z" agent="5.0 (Windows NT 10.0; Win64; x64) AppleWebKit/537.36 (KHTML, like Gecko) Chrome/88.0.4324.190 Safari/537.36" etag="dWB0PkcSr5QhRGBB7PQX" version="14.4.3" type="github">
  <diagram id="_PQn1Uy8t_eb8sXLkzAz" name="Page-1">
    <mxGraphModel dx="1718" dy="935" grid="1" gridSize="10" guides="1" tooltips="1" connect="1" arrows="1" fold="1" page="1" pageScale="1" pageWidth="850" pageHeight="1100" math="0" shadow="0">
      <root>
        <mxCell id="0" />
        <mxCell id="1" parent="0" />
        <mxCell id="i-8vvmm6yCiT5ENzY_J1-1" value="&lt;font size=&quot;1&quot;&gt;&lt;b style=&quot;font-size: 23px&quot;&gt;18650&lt;/b&gt;&lt;/font&gt;" style="rounded=0;whiteSpace=wrap;html=1;direction=south;fillColor=#d5e8d4;strokeColor=#82b366;sketch=1;" vertex="1" parent="1">
          <mxGeometry x="40" y="40" width="220" height="60" as="geometry" />
        </mxCell>
        <mxCell id="i-8vvmm6yCiT5ENzY_J1-6" value="&lt;font style=&quot;font-size: 40px&quot;&gt;+&lt;/font&gt;" style="text;html=1;strokeColor=none;fillColor=none;align=center;verticalAlign=middle;whiteSpace=wrap;rounded=0;sketch=1;" vertex="1" parent="1">
          <mxGeometry x="220" y="55" width="30" height="30" as="geometry" />
        </mxCell>
        <mxCell id="i-8vvmm6yCiT5ENzY_J1-7" value="&lt;font style=&quot;font-size: 40px&quot;&gt;-&lt;/font&gt;" style="text;html=1;strokeColor=none;fillColor=none;align=center;verticalAlign=middle;whiteSpace=wrap;rounded=0;sketch=1;" vertex="1" parent="1">
          <mxGeometry x="50" y="55" width="30" height="30" as="geometry" />
        </mxCell>
        <mxCell id="i-8vvmm6yCiT5ENzY_J1-10" value="" style="endArrow=none;html=1;strokeWidth=4;sketch=1;fillColor=#f8cecc;strokeColor=#b85450;" edge="1" parent="1">
          <mxGeometry width="50" height="50" relative="1" as="geometry">
            <mxPoint x="260" y="130" as="sourcePoint" />
            <mxPoint x="260" y="40" as="targetPoint" />
          </mxGeometry>
        </mxCell>
        <mxCell id="i-8vvmm6yCiT5ENzY_J1-11" value="" style="endArrow=none;html=1;strokeWidth=4;sketch=1;fillColor=#f5f5f5;strokeColor=#666666;" edge="1" parent="1">
          <mxGeometry width="50" height="50" relative="1" as="geometry">
            <mxPoint x="40" y="130" as="sourcePoint" />
            <mxPoint x="40" y="40" as="targetPoint" />
          </mxGeometry>
        </mxCell>
        <mxCell id="i-8vvmm6yCiT5ENzY_J1-12" value="&lt;font size=&quot;1&quot;&gt;&lt;b style=&quot;font-size: 23px&quot;&gt;18650&lt;/b&gt;&lt;/font&gt;" style="rounded=0;whiteSpace=wrap;html=1;direction=south;fillColor=#d5e8d4;strokeColor=#82b366;sketch=1;" vertex="1" parent="1">
          <mxGeometry x="280" y="40" width="220" height="60" as="geometry" />
        </mxCell>
        <mxCell id="i-8vvmm6yCiT5ENzY_J1-13" value="&lt;font style=&quot;font-size: 40px&quot;&gt;+&lt;/font&gt;" style="text;html=1;strokeColor=none;fillColor=none;align=center;verticalAlign=middle;whiteSpace=wrap;rounded=0;sketch=1;" vertex="1" parent="1">
          <mxGeometry x="460" y="55" width="30" height="30" as="geometry" />
        </mxCell>
        <mxCell id="i-8vvmm6yCiT5ENzY_J1-14" value="&lt;font style=&quot;font-size: 40px&quot;&gt;-&lt;/font&gt;" style="text;html=1;strokeColor=none;fillColor=none;align=center;verticalAlign=middle;whiteSpace=wrap;rounded=0;sketch=1;" vertex="1" parent="1">
          <mxGeometry x="290" y="55" width="30" height="30" as="geometry" />
        </mxCell>
        <mxCell id="i-8vvmm6yCiT5ENzY_J1-15" value="" style="endArrow=none;html=1;strokeWidth=4;sketch=1;fillColor=#f8cecc;strokeColor=#b85450;" edge="1" parent="1">
          <mxGeometry width="50" height="50" relative="1" as="geometry">
            <mxPoint x="500" y="130" as="sourcePoint" />
            <mxPoint x="500" y="40" as="targetPoint" />
          </mxGeometry>
        </mxCell>
        <mxCell id="i-8vvmm6yCiT5ENzY_J1-16" value="" style="endArrow=none;html=1;strokeWidth=4;sketch=1;fillColor=#f5f5f5;strokeColor=#666666;" edge="1" parent="1">
          <mxGeometry width="50" height="50" relative="1" as="geometry">
            <mxPoint x="280" y="130" as="sourcePoint" />
            <mxPoint x="280" y="40" as="targetPoint" />
          </mxGeometry>
        </mxCell>
        <mxCell id="i-8vvmm6yCiT5ENzY_J1-17" value="&lt;font size=&quot;1&quot;&gt;&lt;b style=&quot;font-size: 23px&quot;&gt;18650&lt;/b&gt;&lt;/font&gt;" style="rounded=0;whiteSpace=wrap;html=1;direction=south;fillColor=#d5e8d4;strokeColor=#82b366;sketch=1;" vertex="1" parent="1">
          <mxGeometry x="520" y="40" width="220" height="60" as="geometry" />
        </mxCell>
        <mxCell id="i-8vvmm6yCiT5ENzY_J1-18" value="&lt;font style=&quot;font-size: 40px&quot;&gt;+&lt;/font&gt;" style="text;html=1;strokeColor=none;fillColor=none;align=center;verticalAlign=middle;whiteSpace=wrap;rounded=0;sketch=1;" vertex="1" parent="1">
          <mxGeometry x="700" y="55" width="30" height="30" as="geometry" />
        </mxCell>
        <mxCell id="i-8vvmm6yCiT5ENzY_J1-19" value="&lt;font style=&quot;font-size: 40px&quot;&gt;-&lt;/font&gt;" style="text;html=1;strokeColor=none;fillColor=none;align=center;verticalAlign=middle;whiteSpace=wrap;rounded=0;sketch=1;" vertex="1" parent="1">
          <mxGeometry x="530" y="55" width="30" height="30" as="geometry" />
        </mxCell>
        <mxCell id="i-8vvmm6yCiT5ENzY_J1-20" value="" style="endArrow=none;html=1;strokeWidth=4;sketch=1;fillColor=#f8cecc;strokeColor=#b85450;" edge="1" parent="1">
          <mxGeometry width="50" height="50" relative="1" as="geometry">
            <mxPoint x="740" y="130" as="sourcePoint" />
            <mxPoint x="740" y="40" as="targetPoint" />
          </mxGeometry>
        </mxCell>
        <mxCell id="i-8vvmm6yCiT5ENzY_J1-21" value="" style="endArrow=none;html=1;strokeWidth=4;sketch=1;fillColor=#f5f5f5;strokeColor=#666666;" edge="1" parent="1">
          <mxGeometry width="50" height="50" relative="1" as="geometry">
            <mxPoint x="520" y="130" as="sourcePoint" />
            <mxPoint x="520" y="40" as="targetPoint" />
          </mxGeometry>
        </mxCell>
        <mxCell id="i-8vvmm6yCiT5ENzY_J1-22" value="&lt;font size=&quot;1&quot;&gt;&lt;b style=&quot;font-size: 23px&quot;&gt;18650&lt;/b&gt;&lt;/font&gt;" style="rounded=0;whiteSpace=wrap;html=1;direction=south;fillColor=#d5e8d4;strokeColor=#82b366;sketch=1;" vertex="1" parent="1">
          <mxGeometry x="760" y="40" width="220" height="60" as="geometry" />
        </mxCell>
        <mxCell id="i-8vvmm6yCiT5ENzY_J1-23" value="&lt;font style=&quot;font-size: 40px&quot;&gt;+&lt;/font&gt;" style="text;html=1;strokeColor=none;fillColor=none;align=center;verticalAlign=middle;whiteSpace=wrap;rounded=0;sketch=1;" vertex="1" parent="1">
          <mxGeometry x="940" y="55" width="30" height="30" as="geometry" />
        </mxCell>
        <mxCell id="i-8vvmm6yCiT5ENzY_J1-24" value="&lt;font style=&quot;font-size: 40px&quot;&gt;-&lt;/font&gt;" style="text;html=1;strokeColor=none;fillColor=none;align=center;verticalAlign=middle;whiteSpace=wrap;rounded=0;sketch=1;" vertex="1" parent="1">
          <mxGeometry x="770" y="55" width="30" height="30" as="geometry" />
        </mxCell>
        <mxCell id="i-8vvmm6yCiT5ENzY_J1-25" value="" style="endArrow=none;html=1;strokeWidth=4;sketch=1;fillColor=#f8cecc;strokeColor=#b85450;" edge="1" parent="1">
          <mxGeometry width="50" height="50" relative="1" as="geometry">
            <mxPoint x="980" y="130" as="sourcePoint" />
            <mxPoint x="980" y="40" as="targetPoint" />
          </mxGeometry>
        </mxCell>
        <mxCell id="i-8vvmm6yCiT5ENzY_J1-26" value="" style="endArrow=none;html=1;strokeWidth=4;sketch=1;fillColor=#f5f5f5;strokeColor=#666666;" edge="1" parent="1">
          <mxGeometry width="50" height="50" relative="1" as="geometry">
            <mxPoint x="760" y="130" as="sourcePoint" />
            <mxPoint x="760" y="40" as="targetPoint" />
          </mxGeometry>
        </mxCell>
        <mxCell id="i-8vvmm6yCiT5ENzY_J1-27" value="&lt;font size=&quot;1&quot;&gt;&lt;b style=&quot;font-size: 23px&quot;&gt;18650&lt;/b&gt;&lt;/font&gt;" style="rounded=0;whiteSpace=wrap;html=1;direction=south;fillColor=#d5e8d4;strokeColor=#82b366;sketch=1;" vertex="1" parent="1">
          <mxGeometry x="1000" y="40" width="220" height="60" as="geometry" />
        </mxCell>
        <mxCell id="i-8vvmm6yCiT5ENzY_J1-28" value="&lt;font style=&quot;font-size: 40px&quot;&gt;+&lt;/font&gt;" style="text;html=1;strokeColor=none;fillColor=none;align=center;verticalAlign=middle;whiteSpace=wrap;rounded=0;sketch=1;" vertex="1" parent="1">
          <mxGeometry x="1180" y="55" width="30" height="30" as="geometry" />
        </mxCell>
        <mxCell id="i-8vvmm6yCiT5ENzY_J1-29" value="&lt;font style=&quot;font-size: 40px&quot;&gt;-&lt;/font&gt;" style="text;html=1;strokeColor=none;fillColor=none;align=center;verticalAlign=middle;whiteSpace=wrap;rounded=0;sketch=1;" vertex="1" parent="1">
          <mxGeometry x="1010" y="55" width="30" height="30" as="geometry" />
        </mxCell>
        <mxCell id="i-8vvmm6yCiT5ENzY_J1-30" value="" style="endArrow=none;html=1;strokeWidth=4;sketch=1;fillColor=#f8cecc;strokeColor=#b85450;" edge="1" parent="1">
          <mxGeometry width="50" height="50" relative="1" as="geometry">
            <mxPoint x="1220" y="130" as="sourcePoint" />
            <mxPoint x="1220" y="40" as="targetPoint" />
          </mxGeometry>
        </mxCell>
        <mxCell id="i-8vvmm6yCiT5ENzY_J1-31" value="" style="endArrow=none;html=1;strokeWidth=4;sketch=1;fillColor=#f5f5f5;strokeColor=#666666;" edge="1" parent="1">
          <mxGeometry width="50" height="50" relative="1" as="geometry">
            <mxPoint x="1000" y="130" as="sourcePoint" />
            <mxPoint x="1000" y="40" as="targetPoint" />
          </mxGeometry>
        </mxCell>
      </root>
    </mxGraphModel>
  </diagram>
</mxfile>
